<svg width="519" height="579" viewBox="0 0 519 579" fill="none" xmlns="http://www.w3.org/2000/svg">
<path d="M236.935 450.71H281.669C318.963 450.71 349.188 420.481 349.188 383.182V337.422C349.188 325.195 359.098 315.253 371.354 315.253H417.107C454.402 315.253 484.626 285.024 484.626 247.725V202.985C484.626 165.685 454.402 135.457 417.107 135.457H390.866C381.233 135.457 373.423 143.269 373.423 152.902C373.423 162.536 381.233 170.348 390.866 170.348H417.107C435.137 170.348 449.771 184.983 449.771 203.015V247.756C449.771 265.788 435.137 280.424 417.107 280.424H371.354C339.864 280.424 314.302 305.959 314.302 337.484V383.244C314.302 401.276 299.668 415.911 281.638 415.911H236.904C218.874 415.911 204.241 401.276 204.241 383.244V349.403C204.241 320.842 215.355 293.979 235.545 273.785L307.602 201.688C334.369 174.887 349.126 139.286 349.126 101.4V67.5277C349.126 30.2285 318.902 0 281.607 0H236.873C199.579 0 169.355 30.2285 169.355 67.5277V113.287C169.355 125.514 159.444 135.457 147.188 135.457H101.435C64.1406 135.457 33.9163 165.685 33.9163 202.985V247.725C33.9163 285.024 64.1406 315.253 101.435 315.253H127.646C137.278 315.253 145.089 307.441 145.089 297.807C145.089 288.174 137.278 280.362 127.646 280.362H101.435C83.4051 280.362 68.7714 265.726 68.7714 247.694V202.954C68.7714 184.922 83.4051 170.286 101.435 170.286H147.25C178.74 170.286 204.271 144.751 204.271 113.256V67.5277C204.271 49.4956 218.905 34.86 236.935 34.86H281.669C299.699 34.86 314.332 49.4648 314.332 67.5277V101.369C314.332 129.93 303.218 156.793 283.028 176.986L210.971 249.053C184.173 275.823 169.447 311.455 169.447 349.341V383.182C169.416 420.45 199.641 450.71 236.935 450.71Z" fill="white"/>
<path d="M54.0128 476.217H68.5928V539.217H54.0128V476.217ZM25.3928 539.217H10.8128V476.217H25.3928V539.217ZM55.0928 513.387H24.3128V501.057H55.0928V513.387ZM106.538 539.937C101.018 539.937 96.1583 538.857 91.9583 536.697C87.8183 534.537 84.6083 531.597 82.3283 527.877C80.0483 524.097 78.9083 519.807 78.9083 515.007C78.9083 510.147 80.0183 505.857 82.2383 502.137C84.5183 498.357 87.6083 495.417 91.5083 493.317C95.4083 491.157 99.8183 490.077 104.738 490.077C109.478 490.077 113.738 491.097 117.518 493.137C121.358 495.117 124.388 497.997 126.608 501.777C128.828 505.497 129.938 509.967 129.938 515.187C129.938 515.727 129.908 516.357 129.848 517.077C129.788 517.737 129.728 518.367 129.668 518.967H90.3383V510.777H122.288L116.888 513.207C116.888 510.687 116.378 508.497 115.358 506.637C114.338 504.777 112.928 503.337 111.128 502.317C109.328 501.237 107.228 500.697 104.828 500.697C102.428 500.697 100.298 501.237 98.4383 502.317C96.6383 503.337 95.2283 504.807 94.2083 506.727C93.1883 508.587 92.6783 510.807 92.6783 513.387V515.547C92.6783 518.187 93.2483 520.527 94.3883 522.567C95.5883 524.547 97.2383 526.077 99.3383 527.157C101.498 528.177 104.018 528.687 106.898 528.687C109.478 528.687 111.728 528.297 113.648 527.517C115.628 526.737 117.428 525.567 119.048 524.007L126.518 532.107C124.298 534.627 121.508 536.577 118.148 537.957C114.788 539.277 110.918 539.937 106.538 539.937ZM167.667 539.217V529.767L166.767 527.697V510.777C166.767 507.777 165.837 505.437 163.977 503.757C162.177 502.077 159.387 501.237 155.607 501.237C153.027 501.237 150.477 501.657 147.957 502.497C145.497 503.277 143.397 504.357 141.657 505.737L136.617 495.927C139.257 494.067 142.437 492.627 146.157 491.607C149.877 490.587 153.657 490.077 157.497 490.077C164.877 490.077 170.607 491.817 174.687 495.297C178.767 498.777 180.807 504.207 180.807 511.587V539.217H167.667ZM152.907 539.937C149.127 539.937 145.887 539.307 143.187 538.047C140.487 536.727 138.417 534.957 136.977 532.737C135.537 530.517 134.817 528.027 134.817 525.267C134.817 522.387 135.507 519.867 136.887 517.707C138.327 515.547 140.577 513.867 143.637 512.667C146.697 511.407 150.687 510.777 155.607 510.777H168.477V518.967H157.137C153.837 518.967 151.557 519.507 150.297 520.587C149.097 521.667 148.497 523.017 148.497 524.637C148.497 526.437 149.187 527.877 150.567 528.957C152.007 529.977 153.957 530.487 156.417 530.487C158.757 530.487 160.857 529.947 162.717 528.867C164.577 527.727 165.927 526.077 166.767 523.917L168.927 530.397C167.907 533.517 166.047 535.887 163.347 537.507C160.647 539.127 157.167 539.937 152.907 539.937ZM193.514 539.217V472.437H207.554V539.217H193.514ZM243.988 539.937C238.288 539.937 233.848 538.497 230.668 535.617C227.488 532.677 225.898 528.327 225.898 522.567V480.087H239.938V522.387C239.938 524.427 240.478 526.017 241.558 527.157C242.638 528.237 244.108 528.777 245.968 528.777C248.188 528.777 250.078 528.177 251.638 526.977L255.418 536.877C253.978 537.897 252.238 538.677 250.198 539.217C248.218 539.697 246.148 539.937 243.988 539.937ZM218.428 502.677V491.877H251.998V502.677H218.428ZM292.729 490.077C296.569 490.077 299.989 490.857 302.989 492.417C306.049 493.917 308.449 496.257 310.189 499.437C311.929 502.557 312.799 506.577 312.799 511.497V539.217H298.759V513.657C298.759 509.757 297.889 506.877 296.149 505.017C294.469 503.157 292.069 502.227 288.949 502.227C286.729 502.227 284.719 502.707 282.919 503.667C281.179 504.567 279.799 505.977 278.779 507.897C277.819 509.817 277.339 512.277 277.339 515.277V539.217H263.299V472.437H277.339V504.207L274.189 500.157C275.929 496.917 278.419 494.427 281.659 492.687C284.899 490.947 288.589 490.077 292.729 490.077ZM369.716 476.217H384.296V539.217H369.716V476.217ZM341.096 539.217H326.516V476.217H341.096V539.217ZM370.796 513.387H340.016V501.057H370.796V513.387ZM418.641 539.937C414.621 539.937 411.021 539.157 407.841 537.597C404.721 536.037 402.291 533.667 400.551 530.487C398.811 527.247 397.941 523.137 397.941 518.157V490.797H411.981V516.087C411.981 520.107 412.821 523.077 414.501 524.997C416.241 526.857 418.671 527.787 421.791 527.787C423.951 527.787 425.871 527.337 427.551 526.437C429.231 525.477 430.551 524.037 431.511 522.117C432.471 520.137 432.951 517.677 432.951 514.737V490.797H446.991V539.217H433.671V525.897L436.101 529.767C434.481 533.127 432.081 535.677 428.901 537.417C425.781 539.097 422.361 539.937 418.641 539.937ZM488.619 539.937C484.359 539.937 480.699 539.037 477.639 537.237C474.579 535.437 472.239 532.707 470.619 529.047C468.999 525.327 468.189 520.647 468.189 515.007C468.189 509.307 469.029 504.627 470.709 500.967C472.449 497.307 474.849 494.577 477.909 492.777C480.969 490.977 484.539 490.077 488.619 490.077C493.179 490.077 497.259 491.097 500.859 493.137C504.519 495.177 507.399 498.057 509.499 501.777C511.659 505.497 512.739 509.907 512.739 515.007C512.739 520.047 511.659 524.427 509.499 528.147C507.399 531.867 504.519 534.777 500.859 536.877C497.259 538.917 493.179 539.937 488.619 539.937ZM459.999 539.217V472.437H474.039V500.607L473.139 514.917L473.409 529.317V539.217H459.999ZM486.189 528.417C488.529 528.417 490.599 527.877 492.399 526.797C494.259 525.717 495.729 524.187 496.809 522.207C497.949 520.167 498.519 517.767 498.519 515.007C498.519 512.187 497.949 509.787 496.809 507.807C495.729 505.827 494.259 504.297 492.399 503.217C490.599 502.137 488.529 501.597 486.189 501.597C483.849 501.597 481.749 502.137 479.889 503.217C478.029 504.297 476.559 505.827 475.479 507.807C474.399 509.787 473.859 512.187 473.859 515.007C473.859 517.767 474.399 520.167 475.479 522.207C476.559 524.187 478.029 525.717 479.889 526.797C481.749 527.877 483.849 528.417 486.189 528.417Z" fill="white"/>
</svg>
